<?xml version="1.0" standalone="no"?>
<!DOCTYPE svg PUBLIC "-//W3C//DTD SVG 20010904//EN"
 "http://www.w3.org/TR/2001/REC-SVG-20010904/DTD/svg10.dtd">
<svg version="1.0" xmlns="http://www.w3.org/2000/svg"
 width="577.000000pt" height="106.000000pt" viewBox="0 0 577.000000 106.000000"
 preserveAspectRatio="xMidYMid meet">

<g transform="translate(0.000000,106.000000) scale(0.100000,-0.100000)"
fill="#000000" stroke="none">
<path d="M485 707 c-81 -33 -114 -80 -122 -176 -13 -144 68 -241 202 -241 89
0 166 45 181 107 8 30 6 31 -50 48 -43 13 -47 13 -53 -3 -20 -57 -80 -79 -123
-44 -45 36 -45 178 0 214 34 27 74 23 102 -11 24 -28 26 -28 76 -18 29 6 52
15 52 21 0 19 -44 74 -74 91 -36 22 -150 29 -191 12z"/>
<path d="M927 706 c-82 -30 -127 -102 -127 -201 0 -72 24 -130 69 -168 64 -53
167 -62 248 -21 42 20 57 35 77 77 54 106 23 247 -65 296 -52 29 -148 37 -202
17z m132 -93 c28 -23 43 -85 34 -142 -16 -113 -138 -125 -163 -16 -29 121 52
220 129 158z"/>
<path d="M3887 710 c-49 -15 -94 -57 -112 -105 -24 -62 -17 -178 14 -228 38
-61 83 -82 178 -82 91 0 118 13 161 75 31 46 28 58 -19 70 -22 6 -47 14 -55
17 -9 3 -14 -1 -14 -11 0 -27 -46 -66 -78 -66 -42 0 -71 37 -79 97 -14 123 68
197 137 123 25 -27 30 -28 66 -19 68 18 66 16 50 46 -40 78 -147 113 -249 83z"/>
<path d="M1290 506 l0 -206 60 0 60 0 0 80 c0 72 2 80 19 80 23 0 48 -29 87
-104 l29 -56 73 0 74 0 -37 68 c-20 37 -48 77 -61 89 l-23 21 34 21 c42 25 60
78 44 134 -17 63 -42 72 -211 75 l-148 4 0 -206z m234 91 c16 -26 -16 -47 -71
-47 -43 0 -43 0 -43 36 l0 35 51 -3 c37 -2 55 -8 63 -21z"/>
<path d="M1700 665 l0 -45 65 0 65 0 0 -160 0 -160 60 0 60 0 0 160 0 160 65
0 65 0 0 45 0 45 -190 0 -190 0 0 -45z"/>
<path d="M2130 505 l0 -205 170 0 170 0 0 45 0 45 -105 0 -105 0 0 40 0 40 95
0 95 0 0 45 0 45 -95 0 -95 0 0 30 0 30 105 0 105 0 0 45 0 45 -170 0 -170 0
0 -205z"/>
<path d="M2730 506 l0 -206 113 0 c137 0 176 10 216 55 79 90 61 275 -32 331
-26 15 -56 20 -164 22 l-133 4 0 -206z m225 89 c22 -21 25 -33 25 -95 0 -86
-18 -110 -80 -110 l-40 0 0 115 0 115 35 0 c25 0 44 -8 60 -25z"/>
<path d="M3170 505 l0 -205 170 0 170 0 0 45 0 45 -105 0 -105 0 0 40 0 40 95
0 95 0 0 45 0 45 -95 0 -95 0 0 30 0 30 105 0 105 0 0 45 0 45 -170 0 -170 0
0 -205z"/>
<path d="M4270 568 c-29 -79 -63 -171 -76 -205 l-23 -63 64 0 63 0 12 35 12
36 71 -3 c71 -3 71 -3 81 -35 9 -33 9 -33 72 -33 35 0 64 3 64 6 0 4 -32 96
-72 205 l-72 199 -72 0 -72 0 -52 -142z m127 -96 c-21 -2 -41 -1 -43 1 -3 3
12 58 33 117 3 9 15 -13 28 -50 l22 -65 -40 -3z"/>
<path d="M4820 556 c0 -122 -3 -156 -15 -166 -23 -19 -49 -7 -60 28 -9 30 -11
32 -45 26 -82 -13 -82 -13 -76 -42 31 -127 234 -155 301 -41 16 28 20 57 23
191 l4 158 -66 0 -66 0 0 -154z"/>
<path d="M5052 513 c-40 -109 -72 -202 -72 -206 0 -4 28 -7 62 -5 61 3 63 4
72 36 l9 32 73 0 73 0 7 -35 6 -35 68 0 68 0 -74 201 c-41 111 -74 203 -74
205 0 2 -33 4 -73 4 l-72 0 -73 -197z m171 10 l16 -53 -45 0 c-25 0 -43 3 -41
8 3 4 12 34 22 67 19 66 23 64 48 -22z"/>
</g>
</svg>
