<?xml version="1.0" standalone="no"?>
<!DOCTYPE svg PUBLIC "-//W3C//DTD SVG 20010904//EN"
 "http://www.w3.org/TR/2001/REC-SVG-20010904/DTD/svg10.dtd">
<svg version="1.0" xmlns="http://www.w3.org/2000/svg"
 width="1364.000000pt" height="360.000000pt" viewBox="0 0 1364.000000 360.000000"
 preserveAspectRatio="xMidYMid meet">

<g transform="translate(0.000000,360.000000) scale(0.100000,-0.100000)"
fill="#000000" stroke="none">
<path d="M0 3300 c0 -222 3 -305 12 -320 10 -16 10 -24 0 -40 -15 -24 -16
-127 -1 -132 16 -5 18 -128 3 -173 -8 -22 -14 -50 -14 -63 0 -19 4 -22 28 -16
15 3 50 17 78 30 28 13 58 24 67 24 16 0 17 35 17 400 l0 400 580 0 580 0 0
95 0 95 -125 0 -125 0 0 -72 c0 -79 -9 -104 -34 -95 -11 4 -16 19 -16 46 0 25
-5 41 -15 45 -9 3 -15 19 -15 41 0 33 -2 35 -35 35 -32 0 -35 -2 -35 -29 0
-29 -22 -61 -41 -61 -5 0 -9 20 -9 45 l0 45 -95 0 -96 0 14 -27 c20 -39 27
-86 17 -103 -7 -12 -15 -9 -42 16 -18 17 -41 34 -50 37 -10 3 -28 22 -40 41
-18 28 -30 36 -53 36 -25 0 -33 -6 -42 -31 -14 -37 -37 -34 -41 4 -5 45 -38
35 -46 -12 -3 -22 -11 -43 -16 -46 -16 -10 -24 26 -13 56 l11 29 -204 0 -204
0 0 -300z m180 56 c0 -24 -22 -51 -33 -40 -3 3 -4 12 -1 20 2 8 6 21 9 29 7
24 25 17 25 -9z m-27 -274 c3 9 7 6 12 -6 9 -20 -9 -102 -27 -123 -13 -17 -48
-17 -49 0 -2 25 2 64 13 111 11 50 11 50 29 28 12 -15 19 -18 22 -10z"/>
<path d="M12291 3503 c0 -91 1 -96 13 -63 18 50 46 53 46 5 l0 -37 123 4 c67
3 135 10 152 17 l29 12 -42 25 c-27 16 -42 32 -42 45 0 11 -7 22 -15 25 -9 4
-15 19 -15 35 l0 29 -125 0 -125 0 1 -97z"/>
<path d="M12620 3590 c0 -13 20 -13 40 0 12 8 9 10 -12 10 -16 0 -28 -4 -28
-10z"/>
<path d="M12732 3542 l-3 -57 57 -38 57 -37 211 2 211 3 5 39 c7 58 30 59 30
2 l0 -46 75 0 75 0 0 -145 c0 -143 0 -145 25 -161 27 -18 25 -34 -6 -34 -19 0
-19 -8 -17 -262 l3 -263 93 -3 92 -3 0 206 0 205 -43 0 c-52 0 -97 19 -97 41
0 28 47 51 96 47 l44 -3 0 283 0 282 -262 -2 -262 -3 -9 -37 c-5 -23 -15 -38
-24 -38 -12 0 -13 8 -8 40 l7 40 -174 0 -173 0 -3 -58z m848 -37 c0 -8 -3 -15
-7 -15 -5 0 -19 -3 -33 -6 l-25 -6 24 21 c28 25 41 27 41 6z m-52 -257 c-2
-30 -8 -43 -18 -43 -19 0 -25 37 -10 64 18 35 31 24 28 -21z"/>
<path d="M5145 2755 c-157 -34 -227 -62 -325 -128 -116 -78 -230 -212 -287
-335 -18 -40 -33 -77 -33 -82 0 -5 17 -18 38 -29 20 -10 47 -30 59 -43 25 -26
57 -97 49 -106 -3 -3 -30 -1 -60 5 -51 9 -55 8 -60 -11 -9 -33 -7 -36 14 -36
23 0 139 34 185 54 17 7 54 14 83 15 46 2 58 -2 92 -29 41 -32 51 -67 31 -99
-7 -11 2 -22 35 -43 25 -15 47 -28 49 -28 3 0 5 21 5 48 1 111 51 258 113 328
16 19 28 36 26 38 -2 2 -50 6 -107 10 -135 8 -175 14 -248 37 -109 35 -134 92
-51 113 36 9 249 -19 454 -60 97 -19 95 -19 71 24 -35 62 -58 80 -110 91 -69
15 -107 37 -114 67 -8 32 15 51 75 60 38 6 47 4 61 -14 12 -14 24 -19 39 -15
27 7 27 -10 1 -35 l-21 -19 28 -11 c15 -6 40 -14 55 -18 63 -14 94 -75 67
-126 -11 -20 -9 -21 21 -14 18 3 40 6 49 6 12 0 9 7 -12 25 -30 29 -32 37 -16
101 12 48 25 56 38 22 l8 -21 16 24 c21 29 39 21 81 -39 34 -48 30 -84 -12
-106 l-27 -15 27 -1 c15 0 46 -7 69 -17 33 -13 46 -14 60 -5 27 17 41 15 38
-5 -2 -18 5 -43 20 -73 9 -19 72 -50 107 -54 15 -2 33 -11 40 -21 11 -14 21
-16 64 -10 l51 7 -6 38 c-4 22 -2 47 5 59 14 27 29 111 23 128 -8 20 -19 16
-58 -18 -29 -25 -36 -28 -41 -15 -6 16 24 106 36 106 4 0 21 -7 39 -16 18 -9
41 -14 52 -11 13 4 22 0 26 -11 3 -9 13 -25 21 -35 12 -14 13 -22 3 -43 -6
-15 -15 -24 -18 -20 -3 3 -12 1 -20 -5 -16 -14 -17 -56 -1 -61 10 -4 10 -13 1
-42 l-12 -38 52 6 c46 6 171 28 235 42 19 4 21 9 16 32 -4 15 -10 32 -14 37
-3 6 -14 31 -24 57 -33 88 -117 199 -201 264 -138 107 -300 144 -635 143 -178
0 -219 -3 -315 -24z m203 -16 c5 -27 -31 -63 -55 -55 -29 9 -37 35 -16 58 20
22 66 21 71 -3z m732 -148 c0 -42 -29 -89 -48 -77 -27 17 -2 116 29 116 15 0
19 -7 19 -39z m-1080 -344 c0 -29 -15 -51 -29 -43 -10 6 -6 47 6 69 8 13 23
-4 23 -26z"/>
<path d="M11611 2766 c-13 -15 -62 -27 -131 -30 -58 -3 -141 -30 -210 -70
l-55 -31 134 -3 c124 -2 135 -1 153 18 21 23 38 19 38 -9 0 -14 11 -20 53 -25
77 -9 125 -7 133 5 3 6 17 8 30 5 16 -4 40 2 71 19 27 14 58 25 70 25 29 0 29
8 2 37 -19 20 -20 25 -8 40 12 15 12 16 -3 10 -12 -4 -18 -2 -18 8 0 21 -242
22 -259 1z"/>
<path d="M760 2741 c0 -20 159 -27 224 -9 40 10 47 10 65 -6 28 -25 162 -43
198 -27 23 10 29 9 47 -8 17 -17 18 -21 4 -21 -8 0 -21 -6 -27 -14 -7 -8 -28
-17 -48 -21 -28 -5 -40 -2 -57 14 -22 20 -24 21 -67 6 -33 -12 -79 -16 -189
-14 l-145 2 -3 -171 -2 -172 30 6 c30 6 80 -16 80 -36 0 -5 -21 -10 -47 -12
l-48 -3 37 -19 c35 -18 43 -19 104 -7 106 22 143 20 165 -8 16 -20 18 -27 7
-37 -21 -19 -131 -75 -137 -69 -5 6 12 20 34 28 23 9 -7 18 -84 24 -45 3 -84
10 -87 15 -3 4 -16 8 -30 8 -22 0 -24 -4 -24 -45 0 -31 5 -47 15 -51 8 -4 15
-10 15 -15 0 -5 -7 -9 -15 -9 -13 0 -15 -24 -15 -155 0 -166 -2 -159 53 -156
19 1 26 -3 21 -10 -11 -18 77 -3 134 22 54 25 116 34 166 25 39 -8 48 -25 16
-33 -17 -5 -18 -8 -8 -21 11 -13 6 -20 -28 -50 l-42 -34 -133 -2 c-160 -1
-179 -8 -179 -66 0 -22 5 -40 10 -40 6 0 10 7 10 16 0 9 7 14 17 12 12 -2 20
-16 24 -43 8 -51 5 -58 -32 -72 l-30 -12 3 -92 3 -92 140 2 c77 1 160 4 185 6
l45 5 -54 -18 c-51 -18 -53 -19 -28 -26 23 -5 26 -10 22 -34 -4 -15 -8 -37
-11 -48 -2 -12 -11 -24 -19 -28 -16 -6 -133 28 -149 44 -4 4 11 22 34 39 50
36 47 36 -77 14 l-93 -16 2 -181 3 -181 290 0 290 0 3 73 3 73 -28 -3 c-21 -2
-29 -10 -37 -35 -12 -44 -30 -42 -23 2 4 24 1 37 -8 43 -28 15 -24 108 5 117
11 3 27 19 37 35 21 37 33 30 33 -20 0 -21 5 -42 10 -45 7 -4 10 75 10 229 l0
236 138 0 c196 0 396 17 472 39 95 28 155 58 174 86 9 14 24 25 34 25 10 0 34
17 54 38 33 34 36 43 42 117 9 101 23 155 41 155 7 0 17 9 20 20 7 23 20 26
32 8 21 -33 18 289 -3 323 -3 5 -23 9 -45 9 -24 0 -38 4 -34 10 3 6 17 10 30
10 37 0 39 17 8 77 -37 75 -112 156 -182 196 -46 27 -185 77 -213 77 -11 0
-15 -34 -6 -59 5 -13 5 -45 2 -72 l-7 -49 -38 0 c-35 0 -39 3 -39 25 0 15 9
31 25 41 19 12 25 25 25 50 0 19 -4 34 -10 34 -5 0 -10 9 -10 20 0 19 -7 20
-92 20 -89 0 -91 0 -74 -19 17 -19 17 -20 -14 -36 -17 -9 -35 -27 -40 -40 -11
-29 -22 -31 -55 -9 l-24 16 21 36 c11 20 25 40 32 44 6 4 -184 8 -421 8 -238
0 -433 -4 -433 -9z m710 -85 c0 -20 -31 -49 -41 -39 -14 14 2 53 22 53 11 0
19 -6 19 -14z m139 -49 c15 -19 7 -24 -36 -19 -34 4 -35 6 -18 18 24 18 40 18
54 1z m-719 -52 c0 -24 -5 -35 -15 -35 -10 0 -15 11 -15 35 0 24 5 35 15 35
10 0 15 -11 15 -35z m586 -130 c10 -25 -3 -44 -25 -38 -29 7 -29 53 -1 53 11
0 23 -7 26 -15z m-246 -54 c0 -21 6 -32 21 -36 19 -6 20 -12 14 -63 -4 -36
-13 -62 -23 -69 -9 -7 -22 -17 -29 -23 -20 -16 -33 -12 -33 13 0 39 19 187 25
197 12 20 25 9 25 -19z m401 -11 c67 -13 126 -53 153 -105 27 -51 27 -145 1
-195 -12 -23 -14 -35 -6 -38 6 -2 11 -27 11 -62 0 -44 4 -59 16 -64 13 -5 15
-16 11 -52 -6 -60 -17 -70 -56 -53 -23 10 -31 21 -31 39 0 14 -9 31 -20 38
-17 10 -19 19 -13 57 l6 46 -26 -10 c-35 -13 -231 -34 -282 -29 l-40 3 -3 218
-2 217 113 0 c63 0 139 -5 168 -10z m-466 -298 c-9 -120 -14 -142 -32 -142
-13 0 -14 12 -8 98 7 99 18 137 36 126 6 -3 7 -36 4 -82z m175 -365 c0 -51 -5
-79 -16 -96 -26 -37 -34 -7 -22 87 7 58 15 82 24 82 11 0 14 -18 14 -73z
m-276 -273 c17 -7 10 -34 -9 -34 -17 0 -28 17 -20 30 7 12 8 12 29 4z m144
-21 c2 -8 -6 -13 -22 -13 -18 0 -26 -5 -26 -17 -1 -16 -2 -16 -15 1 -26 34
-19 48 22 44 20 -2 38 -9 41 -15z m-378 -33 c0 -30 -13 -40 -25 -20 -8 13 4
50 16 50 5 0 9 -13 9 -30z m508 -82 c-5 -32 -28 -35 -28 -4 0 17 5 26 16 26
10 0 14 -7 12 -22z"/>
<path d="M2971 2694 c-11 -31 -21 -57 -21 -59 0 -2 23 -11 50 -20 28 -9 55
-25 60 -35 32 -59 205 -104 378 -99 107 4 112 5 141 34 33 30 43 72 16 61 -8
-3 -22 -9 -30 -12 -8 -3 -15 -2 -15 4 0 6 15 14 32 18 48 10 99 36 95 48 -3 6
-13 35 -23 64 -19 54 -35 63 -73 42 -17 -9 -239 -40 -284 -40 -15 0 -18 5 -13
25 l6 25 -148 0 -149 0 -22 -56z"/>
<path d="M7241 2723 c-6 -16 -24 -64 -40 -108 -64 -177 -102 -278 -111 -295
-5 -10 -11 -58 -13 -106 -5 -119 -45 -227 -93 -250 -33 -16 -73 -89 -57 -104
4 -4 35 -10 68 -13 33 -3 98 -15 145 -26 49 -12 120 -21 167 -21 75 0 83 2 94
23 6 12 19 29 29 37 10 9 40 90 70 190 29 96 56 182 61 190 11 21 13 16 94
-255 15 -49 35 -116 46 -148 10 -31 19 -63 19 -70 0 -16 27 -41 52 -50 13 -5
19 5 29 46 15 65 40 119 58 125 10 3 12 -5 6 -39 -11 -65 -56 -153 -80 -157
-33 -6 -37 -17 -21 -63 9 -24 16 -47 16 -51 0 -5 -94 -8 -210 -8 -227 0 -222
-2 -200 54 8 23 7 26 -15 32 -14 3 -25 10 -25 15 0 5 -9 18 -20 29 -19 19 -33
20 -220 20 -180 0 -202 -2 -218 -18 -10 -10 -65 -142 -122 -293 -57 -151 -112
-296 -122 -324 -35 -92 -78 -209 -78 -211 0 -2 7 -10 16 -18 13 -13 46 -16
210 -16 107 0 194 3 194 7 0 3 -8 15 -17 25 -16 18 -16 19 5 25 24 6 28 24 12
54 -15 27 14 26 57 -3 37 -26 42 -38 14 -38 -12 0 -19 -7 -19 -17 0 -10 -3
-26 -7 -36 -7 -16 -3 -18 41 -15 49 3 49 3 58 45 5 24 12 43 15 43 3 0 5 20 3
44 -3 38 -6 43 -24 38 -19 -5 -21 -2 -15 33 8 47 24 66 37 45 6 -8 8 -21 5
-28 -2 -6 0 -12 5 -12 6 0 10 6 10 14 0 8 13 17 29 21 21 4 31 14 38 38 l9 32
250 3 250 2 13 35 c14 40 53 70 77 61 16 -6 15 -19 -2 -78 -5 -15 2 -18 41
-18 53 0 49 7 100 -170 18 -63 36 -123 40 -132 6 -16 25 -18 181 -18 96 0 174
4 174 9 0 5 -7 22 -15 37 -26 51 -22 57 44 49 55 -6 59 -5 64 17 9 30 9 43 0
35 -3 -4 -14 0 -24 9 -10 9 -45 28 -78 44 l-60 29 6 -32 c3 -18 9 -33 13 -35
4 -1 16 -9 26 -16 18 -14 17 -15 -11 -26 -17 -6 -47 -21 -68 -32 -21 -11 -40
-18 -41 -16 -1 2 -13 18 -25 35 -19 28 -25 31 -43 22 -40 -21 -114 34 -88 66
9 11 -1 22 -48 54 -68 46 -114 96 -110 120 2 12 17 17 62 19 32 2 64 -2 69 -7
8 -8 -2 -11 -32 -11 -70 0 -34 -37 58 -60 24 -6 54 -22 66 -36 16 -18 38 -26
74 -31 28 -3 51 -3 51 0 0 3 -25 30 -55 60 -56 54 -67 84 -41 107 12 9 21 4
46 -32 18 -24 34 -49 37 -56 11 -26 24 -11 18 19 -6 25 -4 30 6 24 45 -26 77
-55 141 -128 40 -45 79 -82 88 -82 9 0 21 17 29 41 13 38 13 45 -8 97 -13 30
-29 58 -38 61 -9 4 -12 13 -8 25 10 32 -155 468 -187 492 -15 12 -19 23 -15
40 5 16 -10 68 -45 162 -45 118 -56 140 -83 156 -40 23 -84 79 -87 112 -3 20
2 25 25 27 15 2 27 7 27 11 0 5 -11 39 -25 77 -14 38 -25 70 -25 72 0 9 -48
-13 -67 -31 -29 -26 -37 -18 -25 25 10 37 5 95 -9 104 -5 3 -9 -3 -10 -13 0
-10 -9 -36 -19 -58 -18 -39 -18 -40 -27 -15 -10 23 -10 23 -17 -13 -10 -51
-23 -46 -32 11 -3 26 -11 55 -15 64 -6 11 -4 33 6 60 19 55 19 58 -3 58 -22 0
-52 30 -52 52 0 21 49 32 106 23 58 -8 66 -2 47 38 -30 62 -51 77 -110 77 -39
0 -53 -4 -53 -14 0 -8 -11 -27 -24 -43 -17 -20 -23 -36 -19 -56 12 -62 -24
-101 -57 -62 -11 13 -9 19 8 38 21 22 21 23 2 34 -12 8 -21 29 -25 58 l-7 45
-193 0 -193 0 -11 -27z m103 -125 c20 -28 21 -58 2 -58 -8 0 -17 -12 -21 -27
-8 -35 -32 -73 -45 -73 -18 0 -11 92 11 137 24 49 32 52 53 21z m372 -101 c18
7 28 -21 16 -44 -6 -10 -26 -35 -44 -56 -57 -61 -76 -45 -48 42 18 55 38 77
54 61 4 -4 15 -6 22 -3z m217 -271 c8 -19 -17 -53 -27 -37 -9 13 2 51 14 51 4
0 10 -6 13 -14z m117 -191 c0 -46 -23 -55 -56 -25 -31 30 -31 44 1 36 18 -5
27 -2 31 9 11 27 24 16 24 -20z m-952 -27 c-4 -44 -38 -53 -38 -10 0 32 7 42
27 42 10 0 13 -10 11 -32z m1020 -26 c2 -14 -2 -22 -12 -22 -19 0 -29 17 -22
36 8 22 30 12 34 -14z m-188 -522 c0 -11 -4 -29 -9 -42 -5 -13 -19 -56 -31
-96 -18 -57 -25 -70 -36 -62 -10 9 -9 24 7 80 10 38 26 87 35 110 16 40 34 45
34 10z m-1034 -504 c15 -12 17 -17 6 -28 -15 -15 -45 0 -50 26 -4 20 18 21 44
2z"/>
<path d="M8963 2711 c3 -29 1 -41 -9 -45 -8 -3 -14 -11 -14 -18 -1 -16 -39
-59 -66 -74 -15 -9 -22 -8 -31 5 -10 13 -14 14 -22 2 -12 -18 -2 -51 15 -51 8
0 14 -4 14 -9 0 -4 20 -16 45 -26 26 -9 44 -22 42 -28 -2 -6 -28 -16 -58 -22
l-54 -10 -3 -437 -2 -436 29 -15 29 -15 19 57 c21 66 50 79 45 20 -2 -30 1
-38 19 -42 27 -7 15 -27 -16 -27 -21 0 -27 -8 -40 -57 -30 -107 -39 -128 -63
-131 -20 -3 -22 -9 -22 -68 l0 -64 30 0 c35 0 36 2 14 36 -21 32 -10 44 14 15
22 -29 133 -57 161 -41 11 5 59 9 108 9 53 -1 111 5 146 14 32 9 70 14 85 11
l27 -6 -3 117 c-3 116 -4 118 -32 142 -16 13 -34 41 -40 61 -19 71 -7 257 18
257 7 0 21 -13 32 -30 l20 -30 0 273 c0 210 3 272 13 273 6 1 32 3 56 4 54 5
58 8 32 34 -29 29 -30 101 -2 108 11 3 22 11 25 19 8 22 33 16 40 -9 3 -13 1
-50 -4 -82 -5 -32 -7 -61 -5 -65 2 -4 39 -10 82 -13 176 -12 283 -102 322
-272 27 -115 30 -384 7 -492 l-7 -30 62 9 c34 4 68 13 75 19 8 6 20 9 28 6 7
-3 18 -1 24 5 6 6 34 6 83 -1 46 -7 122 -8 199 -3 119 7 125 8 128 30 2 15 -2
22 -12 22 -22 0 -20 33 4 55 28 25 29 106 2 98 -10 -2 -22 -19 -28 -36 -7 -25
-15 -33 -37 -35 -31 -4 -57 12 -57 35 0 8 -12 27 -26 42 -24 26 -30 27 -72 20
-44 -9 -72 0 -72 22 0 17 75 41 111 36 36 -5 37 -4 43 36 10 61 35 107 58 107
32 0 86 -64 91 -108 2 -20 3 -5 0 33 -11 205 -74 406 -169 535 l-33 46 -93 14
c-51 8 -122 14 -157 13 -50 -2 -73 2 -103 19 -21 12 -37 27 -35 32 2 7 52 12
128 14 68 1 127 6 132 11 5 5 -7 18 -27 30 -30 19 -41 21 -73 12 -33 -8 -111
-15 -150 -12 -7 1 -13 10 -13 20 0 15 12 22 50 32 27 7 48 14 46 17 -16 15
-172 43 -274 49 -108 5 -124 4 -135 -11 -10 -13 -22 -15 -59 -10 -27 4 -48 11
-48 15 0 16 -30 9 -51 -12 -18 -18 -29 -20 -64 -16 -40 6 -43 5 -48 -20 -3
-15 -3 -43 0 -61 7 -42 -6 -52 -72 -52 -58 0 -95 8 -95 21 0 15 63 49 103 55
20 4 37 8 37 9 0 1 -7 15 -15 32 -12 24 -25 32 -66 41 -67 16 -162 15 -178 0
-11 -10 -14 -10 -18 0 -3 8 -26 12 -65 12 l-61 0 6 -39z m221 -46 c15 -8 32
-13 36 -10 15 9 20 -12 6 -24 -21 -18 -103 -26 -121 -11 -21 18 -19 35 8 48
30 15 37 14 71 -3z m366 -15 c0 -28 -40 -130 -51 -130 -19 0 -11 47 26 148 7
18 25 5 25 -18z m-538 -47 c17 -15 25 -43 12 -43 -14 0 -45 22 -54 40 -9 16
-8 20 6 20 10 0 26 -7 36 -17z m88 -85 c0 -15 -73 -78 -89 -78 -13 0 -34 37
-29 52 9 26 118 49 118 26z m790 -21 c0 -31 -14 -57 -32 -57 -11 0 -10 48 2
71 16 29 30 23 30 -14z m-444 -12 c-42 -34 -126 -62 -169 -57 -36 4 -47 15
-27 27 31 19 151 54 185 54 l40 0 -29 -24z m641 -60 c5 -15 -51 -209 -67 -230
-4 -5 -10 -22 -14 -37 -3 -16 -11 -28 -17 -28 -7 0 -9 9 -4 23 3 12 11 40 16
62 5 22 12 48 15 58 4 11 0 17 -10 17 -19 0 -20 22 -4 67 7 20 19 33 29 33 10
0 20 11 23 25 7 28 24 33 33 10z m163 7 c0 -13 -12 -22 -22 -16 -10 6 -1 24
13 24 5 0 9 -4 9 -8z m-961 -43 c24 -9 31 -17 31 -38 0 -15 -7 -36 -15 -47 -8
-10 -15 -35 -15 -55 0 -56 -11 -100 -24 -96 -6 2 -13 12 -14 23 -2 10 -13 26
-24 35 -25 20 -18 69 10 69 9 0 23 4 31 9 11 7 7 13 -18 25 -44 23 -44 79 0
85 3 1 20 -4 38 -10z m-298 -303 c28 -5 29 -8 29 -60 0 -64 -20 -91 -38 -51
-6 14 -18 25 -27 25 -9 0 -15 9 -15 24 0 13 -7 29 -15 36 -20 17 -19 29 8 70
l22 35 3 -36 c3 -32 7 -38 33 -43z m1159 -98 c-12 -59 -36 -118 -49 -118 -17
0 -13 87 5 123 37 73 58 70 44 -5z m94 -117 c-8 -58 -17 -67 -57 -52 -19 8
-27 18 -27 35 0 34 10 56 26 56 7 0 18 10 25 21 10 19 13 20 26 7 11 -11 12
-27 7 -67z m-984 -336 c0 -40 -12 -48 -74 -49 -39 -1 -41 1 -41 29 0 26 5 30
45 41 68 18 70 18 70 -21z"/>
<path d="M9340 2740 c0 -5 5 -10 10 -10 6 0 10 5 10 10 0 6 -4 10 -10 10 -5 0
-10 -4 -10 -10z"/>
<path d="M8816 2724 c-4 -10 -1 -14 6 -12 15 5 23 28 10 28 -5 0 -13 -7 -16
-16z"/>
<path d="M12152 2717 c-12 -13 -20 -26 -16 -29 3 -4 -2 -20 -11 -37 -17 -33
-35 -33 -35 0 0 23 -8 24 -32 2 -13 -12 -35 -16 -81 -15 l-62 1 54 -14 c59
-15 76 -27 68 -48 -7 -19 -130 -31 -177 -17 -25 7 -65 7 -135 -1 -58 -7 -149
-9 -216 -6 -91 5 -123 4 -145 -8 -16 -8 -83 -19 -149 -25 -144 -13 -165 -20
-165 -55 0 -21 -4 -25 -19 -20 -15 4 -26 -4 -49 -37 -32 -46 -75 -130 -86
-165 l-7 -21 63 20 c151 48 177 53 210 33 24 -14 42 -16 89 -11 44 5 66 3 90
-9 17 -9 28 -20 24 -23 -4 -4 -115 -11 -247 -17 l-241 -10 -23 -85 c-13 -47
-26 -129 -30 -184 l-7 -99 39 6 c97 15 191 19 198 9 15 -25 -45 -46 -142 -50
l-95 -5 5 -109 c3 -60 8 -111 10 -114 9 -8 152 17 186 34 28 12 35 13 42 2 6
-10 24 -11 73 -6 43 4 66 3 69 -4 2 -8 28 -6 81 5 133 27 121 8 119 186 0 85
-4 162 -8 172 -3 10 -1 17 5 17 6 0 17 26 26 58 9 31 25 76 35 100 25 54 25
57 -2 38 -21 -15 -58 -22 -58 -11 0 17 64 115 74 112 6 -2 12 -22 14 -44 l3
-41 43 46 c40 44 44 52 49 116 l5 68 -69 -4 c-50 -3 -69 0 -69 9 0 6 5 15 12
19 18 11 180 27 286 28 81 0 92 2 92 18 0 12 11 19 38 23 20 3 57 9 82 14 24
5 48 7 52 5 17 -11 6 -21 -34 -34 -56 -17 -32 -25 32 -11 62 13 90 14 90 2 0
-5 -11 -12 -25 -15 -21 -5 -25 -12 -25 -44 l0 -37 51 4 c44 3 51 1 56 -18 3
-12 10 -21 16 -21 21 0 -5 -15 -51 -30 -42 -14 -47 -18 -50 -49 -3 -24 2 -37
16 -47 52 -36 110 -217 119 -371 l6 -102 46 -6 c25 -3 76 -7 113 -9 102 -4
149 -47 113 -102 -9 -14 -14 -28 -12 -31 3 -3 41 11 85 31 44 20 86 34 93 31
8 -4 32 -31 54 -60 54 -74 68 -69 78 25 21 191 -7 454 -65 600 -35 90 -42 97
-96 98 -49 0 -62 -9 -62 -45 0 -26 19 -30 50 -11 22 14 27 11 30 -17 6 -55 1
-65 -32 -65 -18 0 -44 9 -58 20 -14 11 -31 20 -38 20 -6 0 -22 11 -34 25 -12
14 -32 25 -45 25 -21 0 -23 -5 -23 -45 0 -25 -5 -45 -10 -45 -13 0 -30 43 -30
75 0 13 -8 40 -17 60 l-18 35 -67 -6 c-71 -7 -83 0 -52 30 12 13 27 15 70 10
61 -8 61 -8 43 75 -6 27 -17 55 -25 62 -8 6 -14 22 -14 36 0 36 -43 75 -75 67
-23 -6 -25 -3 -26 27 0 19 -4 42 -8 52 -6 17 -8 16 -29 -6z m-971 -354 c7 -20
3 -22 -55 -32 -81 -14 -144 -15 -130 -1 12 12 155 60 168 56 5 -1 13 -12 17
-23z m1104 -103 c0 -28 -23 -30 -63 -4 -31 20 -18 36 26 32 32 -3 37 -6 37
-28z m25 -65 c0 -6 -62 -62 -93 -84 -18 -13 -22 -12 -34 5 -19 26 -14 33 47
59 56 23 80 29 80 20z m100 -114 c0 -13 -26 -21 -65 -21 -39 0 -65 8 -65 21 0
5 29 9 65 9 36 0 65 -4 65 -9z m-1115 -181 c0 -8 -10 -16 -22 -18 -22 -3 -32
16 -16 32 12 11 38 2 38 -14z m1065 -10 c11 -11 20 -24 20 -29 0 -16 -22 -71
-28 -71 -4 0 -17 -3 -29 -6 -22 -6 -23 -3 -23 44 0 84 19 103 60 62z m-990
-65 c9 -11 9 -21 -4 -46 -9 -18 -16 -40 -16 -50 0 -21 -44 -54 -59 -45 -31 20
-13 141 21 141 9 0 20 4 24 8 11 11 20 9 34 -8z m-480 -71 c6 -14 8 -30 4 -35
-3 -5 6 -9 20 -9 13 0 26 4 28 9 3 9 40 14 86 12 21 -1 33 -31 13 -31 -6 0
-22 -11 -36 -24 -15 -14 -33 -22 -41 -19 -16 6 -56 -11 -86 -35 -28 -23 -38
-5 -38 67 0 85 29 122 50 65z m319 -15 c43 -15 34 -33 -20 -40 -24 -4 -48 -8
-54 -9 -40 -9 -50 30 -12 48 29 14 47 14 86 1z"/>
<path d="M12443 2578 c1 -6 -13 -15 -32 -19 -46 -10 -53 -24 -45 -99 4 -36 8
-74 9 -84 1 -11 7 -22 13 -24 7 -2 12 -10 12 -18 0 -8 9 -14 20 -14 15 0 20 7
20 30 0 16 -7 33 -15 37 -17 10 -10 83 9 83 6 0 22 9 36 20 14 11 35 20 48 20
32 0 27 12 -17 48 -41 33 -63 41 -58 20z"/>
<path d="M3656 2526 c4 -19 1 -26 -16 -31 -19 -6 -20 -9 -9 -20 16 -16 96 -27
104 -16 2 5 -3 27 -12 50 -14 35 -20 41 -45 41 -25 0 -28 -3 -22 -24z"/>
<path d="M2900 2505 c-13 -35 -13 -35 10 -35 15 0 20 7 20 24 0 35 -18 42 -30
11z"/>
<path d="M13450 2478 c0 -45 41 -61 132 -51 56 6 58 7 58 34 0 25 -4 29 -27
29 -16 0 -58 3 -95 7 -68 6 -68 6 -68 -19z"/>
<path d="M7902 2470 c0 -14 2 -19 5 -12 2 6 2 18 0 25 -3 6 -5 1 -5 -13z"/>
<path d="M12550 2464 c0 -8 5 -12 10 -9 6 3 10 10 10 16 0 5 -4 9 -10 9 -5 0
-10 -7 -10 -16z"/>
<path d="M11896 2440 c-73 -13 -76 -15 -76 -60 0 -38 2 -40 30 -40 17 0 39 5
50 12 16 10 25 8 56 -15 21 -14 39 -25 40 -24 0 1 4 32 7 70 l6 67 -32 -1
c-18 -1 -54 -5 -81 -9z"/>
<path d="M120 2409 c-30 -10 -67 -18 -82 -18 -15 -1 -30 -6 -34 -13 -5 -8 5
-9 37 -3 24 4 65 11 91 15 52 7 67 16 52 29 -5 4 -34 0 -64 -10z"/>
<path d="M11672 2396 c-6 -11 -13 -34 -15 -49 -4 -25 -2 -28 17 -22 11 3 40 9
64 12 48 6 49 7 53 47 4 29 3 29 -52 31 -49 3 -58 0 -67 -19z"/>
<path d="M13508 2363 l-58 -4 0 -54 0 -55 95 0 95 0 0 60 0 60 -37 -2 c-21 -1
-64 -3 -95 -5z"/>
<path d="M2829 2313 c-6 -15 -60 -161 -121 -323 -303 -804 -302 -800 -280
-800 11 0 18 9 19 26 3 52 68 59 91 10 25 -51 48 -66 102 -66 41 0 50 -3 50
-18 0 -22 -52 -45 -89 -40 -27 4 -30 1 -46 -56 -27 -100 -51 -110 -109 -46
-27 30 -36 49 -37 78 0 20 -4 46 -8 56 -7 19 -14 1 -119 -282 -3 -10 57 -12
294 -10 l299 3 17 60 c39 140 58 202 67 228 l11 27 306 0 c287 0 306 1 301 18
-3 9 -14 42 -26 73 -19 53 -28 96 -53 252 l-10 67 -129 0 c-71 0 -129 -3 -129
-6 0 -3 23 -31 51 -62 28 -31 58 -67 67 -81 9 -15 24 -34 34 -44 20 -20 23
-49 7 -78 -16 -31 -30 -12 -28 38 4 59 -10 66 -83 40 l-58 -21 -34 33 c-37 36
-106 161 -106 193 0 12 7 26 15 32 8 6 30 63 50 128 19 64 38 123 41 132 4 10
1 16 -10 16 -29 0 -126 41 -156 67 -46 38 -34 112 23 142 34 18 55 9 59 -26 3
-28 4 -28 52 -20 5 1 11 -4 13 -10 3 -8 -5 -13 -21 -13 -16 0 -26 -6 -26 -14
0 -16 81 -59 91 -48 4 4 23 64 44 133 39 132 53 164 62 141 2 -6 10 -9 15 -6
25 16 79 2 145 -36 38 -22 77 -40 86 -40 9 0 18 -4 21 -9 9 -13 -78 -39 -157
-47 -63 -6 -67 -8 -61 -28 3 -12 14 -30 24 -41 30 -35 42 -65 35 -96 -4 -19 4
-62 25 -131 17 -57 34 -112 37 -122 4 -16 8 -14 19 14 10 24 18 30 25 23 14
-14 28 -126 29 -228 1 -60 4 -74 11 -57 13 33 29 24 57 -30 20 -39 24 -60 22
-137 0 -50 -1 -97 -2 -103 -1 -16 15 -74 58 -215 l35 -113 135 0 c122 0 135 2
132 17 -2 9 -14 20 -28 23 -29 7 -34 28 -23 84 10 45 28 57 38 27 3 -12 12
-21 20 -21 14 0 25 -21 25 -51 0 -10 7 -19 15 -19 17 0 20 -25 5 -35 -28 -17
-4 -26 63 -23 l72 3 3 33 c5 46 32 43 32 -3 l0 -35 61 0 c54 0 60 2 54 18 -4
9 -25 62 -45 117 -23 60 -43 100 -51 100 -16 0 -38 56 -38 98 -1 16 -6 38 -13
50 -6 12 -13 33 -14 48 -6 49 -45 139 -66 150 -25 13 -27 11 -42 -48 -8 -33
-18 -49 -31 -52 -15 -3 -17 2 -12 32 5 29 2 36 -15 40 -26 7 -19 30 11 37 16
3 27 18 37 45 20 58 18 79 -17 171 -28 76 -34 83 -63 89 -77 16 -81 21 -36 47
37 21 37 40 5 104 -14 27 -25 57 -25 66 0 9 -5 28 -11 41 -10 23 -12 23 -57
12 -26 -7 -80 -16 -119 -20 -68 -7 -73 -6 -73 12 0 11 11 30 25 43 31 29 33
72 3 99 -23 22 -32 26 -90 35 -56 10 -94 66 -69 105 7 11 13 10 35 -4 28 -19
32 -11 16 29 -9 26 -11 26 -117 26 -76 0 -116 -5 -137 -15 -35 -19 -64 -19
-96 0 -40 23 -202 20 -268 -5 -66 -25 -75 -25 -87 2 -15 34 -43 35 -56 1z
m275 -103 c7 -7 3 -19 -11 -37 -18 -25 -27 -28 -89 -31 -38 -2 -79 -1 -91 3
-25 6 -37 35 -28 66 7 20 11 21 108 15 55 -3 105 -10 111 -16z m412 -155 c3
-8 14 -17 24 -20 16 -5 18 -14 13 -80 -5 -63 -3 -75 11 -81 20 -8 62 19 71 46
3 11 13 20 22 20 12 0 14 -9 8 -52 -9 -66 -11 -69 -39 -62 -12 3 -42 -2 -67
-10 -42 -15 -45 -15 -61 4 -9 11 -21 20 -27 20 -12 0 -13 6 -5 38 4 12 13 22
20 22 9 0 14 11 14 30 0 17 -4 30 -10 30 -11 0 -14 93 -3 103 11 11 23 8 29
-8z m-779 -150 c10 -30 9 -35 -8 -40 -24 -8 -39 1 -39 25 0 56 31 67 47 15z
m1146 -107 c9 -18 14 -34 13 -36 -2 -1 -15 2 -30 7 -19 8 -26 18 -26 36 0 35
24 31 43 -7z m-1186 -268 c43 -22 91 -51 106 -66 35 -33 32 -60 -7 -57 -22 2
-27 -1 -22 -15 3 -9 -6 -2 -22 16 -19 23 -33 31 -45 26 -20 -7 -24 15 -6 33
18 18 0 33 -41 33 -49 0 -85 14 -94 35 -18 48 31 46 131 -5z m1135 -55 c3 -3
3 -16 0 -30 -3 -19 -15 -27 -57 -40 -29 -8 -56 -15 -59 -15 -13 0 -5 59 10 74
15 15 94 23 106 11z m-1034 -352 c16 -13 19 -25 15 -45 -3 -16 -11 -28 -18
-28 -7 0 -20 -11 -29 -25 -9 -14 -21 -23 -26 -20 -11 7 -14 118 -3 128 12 12
40 7 61 -10z m88 -104 c-8 -53 -36 -109 -54 -109 -20 0 -10 75 19 138 18 41
21 45 31 28 5 -10 7 -36 4 -57z"/>
<path d="M73 2313 c-6 -5 -9 -20 -6 -36 5 -26 8 -27 65 -27 l59 0 -3 33 c-3
31 -5 32 -53 35 -27 1 -55 -1 -62 -5z"/>
<path d="M3730 2281 c0 -6 -11 -18 -25 -27 -24 -16 -27 -16 -46 2 -16 14 -22
16 -28 5 -21 -34 21 -79 44 -48 17 24 25 21 25 -7 0 -29 15 -42 24 -21 4 11
22 15 63 16 32 1 50 3 40 6 -9 2 -15 8 -12 12 2 5 -16 23 -40 40 -25 18 -45
28 -45 22z"/>
<path d="M3730 2142 c0 -16 123 -122 142 -122 5 0 4 9 -2 21 -7 11 -9 32 -6
45 5 20 3 24 -17 24 -13 0 -29 -6 -36 -12 -10 -11 -18 -7 -42 20 -29 32 -39
39 -39 24z"/>
<path d="M4462 2080 c0 -14 2 -19 5 -12 2 6 2 18 0 25 -3 6 -5 1 -5 -13z"/>
<path d="M4473 1967 c-40 -52 -57 -225 -34 -344 5 -26 12 -65 16 -85 3 -21 12
-38 19 -38 8 0 12 -15 12 -47 0 -34 11 -73 38 -135 37 -85 39 -88 72 -88 18 0
48 9 67 20 32 19 36 19 51 5 14 -15 14 -20 1 -53 -27 -66 -67 -81 -84 -32 -10
29 -31 42 -31 19 0 -21 71 -108 129 -158 60 -52 166 -121 186 -121 5 0 10 15
10 33 0 27 4 32 25 34 17 2 31 -5 44 -23 l18 -26 -28 4 c-23 2 -30 -1 -32 -18
-3 -18 5 -25 40 -38 58 -22 117 -26 150 -10 15 8 36 14 47 14 28 0 37 -20 12
-27 -28 -7 -27 -23 2 -23 12 0 30 9 40 20 24 29 51 27 43 -4 -5 -20 -1 -24 25
-30 58 -11 87 -8 85 12 -1 21 107 60 172 61 35 1 42 -2 42 -18 0 -10 -9 -21
-20 -24 -11 -3 -20 -11 -20 -19 0 -11 15 -13 83 -6 145 14 267 50 267 79 0 6
10 32 21 59 25 59 75 93 95 65 16 -22 27 -19 52 15 26 34 27 40 8 40 -8 0 -18
5 -21 10 -9 15 14 40 36 40 11 0 19 5 19 10 0 21 29 21 58 0 25 -19 32 -20 50
-9 26 16 52 -2 52 -38 l0 -24 40 22 40 23 -1 325 c-1 179 -4 310 -8 291 l-6
-35 -110 3 c-61 1 -141 7 -180 12 -38 5 -98 12 -132 15 -35 4 -63 10 -63 15 0
4 24 10 53 13 78 8 188 43 306 98 113 53 126 53 134 -4 2 -18 4 -7 3 23 l-1
55 -242 3 c-240 2 -242 2 -254 -20 l-11 -21 -12 22 c-11 20 -14 21 -25 7 -17
-20 -65 -21 -81 -1 -11 13 -36 15 -144 13 l-131 -3 -3 -192 -2 -193 197 -2
198 -3 3 -91 3 -92 -58 -32 c-32 -18 -94 -46 -138 -61 -80 -28 -80 -28 -86
-68 -5 -37 -23 -71 -38 -71 -9 0 -41 66 -41 84 0 9 -22 15 -72 20 -40 3 -94
13 -119 20 -95 29 -189 107 -229 192 -13 27 -27 51 -30 54 -6 4 -27 148 -33
225 -2 26 -6 30 -34 33 -41 4 -43 22 -3 22 62 0 19 36 -70 60 -25 6 -50 18
-56 26 -9 11 -17 12 -43 3 -32 -11 -32 -11 -13 -33 30 -32 42 -61 35 -84 -8
-34 -25 -26 -63 29 -43 63 -54 70 -48 30 6 -39 -4 -39 -51 -1 -21 16 -57 33
-80 39 -60 13 -91 45 -91 92 0 41 -12 56 -27 36z m44 -204 c6 -16 -30 -34 -46
-23 -21 12 -5 42 21 38 12 -2 23 -8 25 -15z m1708 -352 c-5 -23 -12 -31 -23
-29 -21 4 -27 40 -12 69 11 19 14 20 27 6 11 -10 13 -24 8 -46z m-1049 -178
c-17 -97 -51 -161 -73 -140 -7 7 35 146 50 165 19 24 29 12 23 -25z m732 -236
c2 -18 -2 -29 -13 -33 -26 -10 -37 9 -25 40 12 34 34 29 38 -7z m-1013 -7 c0
-22 -39 -19 -43 3 -3 15 1 18 20 15 12 -2 23 -10 23 -18z"/>
<path d="M12246 1685 c5 -11 -1 -15 -19 -15 -22 0 -26 -5 -32 -46 -7 -52 -2
-63 20 -44 12 10 24 10 59 0 24 -6 54 -10 67 -7 22 4 21 5 -9 12 -34 8 -65 46
-44 53 18 6 -18 61 -40 62 -4 0 -5 -7 -2 -15z"/>
<path d="M12470 1539 c0 -5 5 -7 10 -4 6 3 10 8 10 11 0 2 -4 4 -10 4 -5 0
-10 -5 -10 -11z"/>
<path d="M12395 1509 c-22 -4 -79 -8 -127 -7 -91 0 -108 -4 -108 -28 0 -10 7
-13 25 -8 18 4 25 2 25 -7 0 -22 57 -44 75 -29 12 10 15 9 15 -4 0 -18 -38
-36 -77 -36 -17 0 -27 -7 -30 -20 -7 -26 -37 -22 -41 5 -7 46 -12 50 -30 23
-16 -24 -87 -88 -128 -116 -16 -10 -3 -12 78 -9 54 2 103 9 111 15 7 6 22 11
32 10 11 -1 39 2 62 6 l41 7 -5 -40 c-6 -43 5 -53 27 -26 9 10 9 15 1 15 -6 0
-11 17 -11 39 0 30 4 40 20 44 11 3 20 14 20 25 0 11 8 22 19 25 11 2 21 15
23 28 2 16 10 24 23 24 22 0 21 8 9 -137 -7 -85 -6 -87 15 -81 11 3 21 11 21
18 0 14 38 31 47 21 3 -3 0 -12 -7 -21 -10 -12 -8 -16 15 -25 15 -6 25 -16 22
-23 -5 -17 -98 -29 -115 -14 -12 9 -14 8 -11 -8 3 -13 19 -22 52 -31 56 -14
62 -18 52 -35 -6 -8 -34 -10 -96 -7 -49 3 -89 2 -89 -3 0 -14 -38 -11 -43 4
-3 9 -10 9 -31 -3 -20 -10 -29 -11 -34 -3 -17 27 -70 33 -292 32 -160 -1 -234
2 -250 11 -12 6 -31 10 -41 7 -10 -3 -22 1 -27 7 -4 7 -18 19 -32 26 l-25 14
25 6 c20 5 26 13 28 41 3 32 -1 39 -35 61 -60 41 -100 85 -129 144 l-27 55
-126 -7 c-69 -4 -134 -11 -144 -16 -10 -5 -31 -6 -48 -3 -23 5 -243 -29 -257
-41 -2 -1 10 -35 27 -76 l31 -73 87 1 c49 1 99 4 113 5 21 3 25 0 22 -20 -2
-22 0 -23 39 -17 23 4 69 19 103 35 44 21 71 27 98 24 39 -5 43 -23 7 -23 -27
0 -19 -24 8 -28 26 -4 67 -47 58 -61 -11 -19 -31 -12 -44 16 -12 26 -13 26
-23 8 -6 -10 -26 -34 -45 -53 -19 -18 -32 -39 -30 -45 2 -7 23 -13 48 -15 24
-2 48 -7 54 -13 5 -5 19 -9 32 -9 23 0 42 -24 29 -37 -3 -4 -23 -1 -43 5 -26
8 -41 8 -49 1 -7 -6 -33 -9 -58 -8 -25 2 -47 1 -49 -2 -2 -2 -7 -32 -10 -66
l-7 -61 68 -26 c37 -14 99 -35 138 -46 74 -20 294 -46 318 -37 9 4 16 34 20
96 5 54 13 94 21 101 17 14 26 -10 20 -58 -2 -20 -7 -61 -10 -90 l-6 -52 98 6
c111 6 236 33 336 71 65 26 77 35 57 48 -5 3 -10 13 -10 21 0 11 14 14 59 14
l59 0 81 75 c74 70 150 171 179 238 l12 28 -38 -7 c-20 -3 -40 -10 -45 -13
-12 -12 -67 0 -67 14 0 24 25 32 94 31 63 -1 69 1 77 22 5 12 7 38 4 57 -3 26
0 35 10 35 8 0 15 9 15 20 0 24 -13 26 -30 5 -18 -22 -37 -18 -36 7 1 34 -41
45 -106 28 -36 -9 -53 -10 -56 -2 -2 7 -12 7 -35 0 -23 -9 -32 -8 -35 0 -2 7
-7 11 -10 11 -4 -1 -25 -5 -47 -10z m-16 -61 c11 -30 1 -33 -45 -13 -31 13
-36 18 -24 25 27 17 60 11 69 -12z m-1014 -35 c-1 -42 -4 -48 -24 -51 -51 -8
-68 43 -25 77 40 32 50 27 49 -26z m-208 -39 c8 -20 -9 -31 -65 -39 -34 -5
-48 -3 -60 9 -14 13 -12 16 14 21 16 4 43 11 59 15 43 12 45 12 52 -6z"/>
<path d="M10085 1486 c-11 -9 -29 -16 -40 -16 -69 -1 -123 -35 -147 -93 -8
-16 -27 -34 -45 -42 -18 -8 -33 -21 -33 -30 0 -8 -11 -21 -25 -27 -21 -9 -25
-18 -25 -55 0 -30 -5 -45 -16 -50 -8 -3 -89 -1 -179 5 -118 8 -174 15 -201 28
-37 18 -38 18 -87 -10 -46 -25 -50 -26 -73 -12 -13 9 -41 16 -64 16 -37 0 -39
-2 -29 -19 7 -10 9 -27 5 -37 -7 -18 -9 -17 -31 8 -12 15 -25 32 -27 39 -5 16
-37 5 -68 -23 -89 -81 -101 -88 -140 -88 l-40 0 0 -46 c0 -41 2 -45 20 -39 12
4 45 7 75 7 30 0 55 4 55 8 0 4 9 17 20 30 16 19 22 21 35 10 18 -15 20 -40 3
-40 -9 0 -8 -3 2 -10 28 -18 144 -30 198 -22 43 7 56 6 68 -6 13 -13 103 -37
110 -30 1 2 5 31 9 66 l7 62 -36 0 c-27 0 -40 -6 -52 -25 -20 -30 -34 -32 -34
-5 0 13 -7 20 -20 20 -29 0 -25 23 10 53 23 21 36 25 59 21 18 -4 43 1 66 12
36 17 38 17 54 -3 24 -31 157 -45 272 -29 l56 8 11 -31 c6 -17 19 -34 29 -37
117 -37 156 -83 128 -150 -14 -33 -14 -36 2 -30 9 4 35 11 58 16 85 19 249
105 226 119 -10 7 -31 55 -31 72 0 5 11 9 24 9 26 0 40 -23 31 -51 -10 -32 10
-21 55 27 24 26 39 51 36 60 -3 8 5 19 22 28 34 18 87 106 118 194 13 37 24
70 24 75 0 4 -30 7 -66 7 -57 0 -65 -2 -60 -16 4 -9 1 -22 -4 -30 -13 -14 -52
-4 -107 29 -22 12 -40 16 -55 11 -30 -9 -128 -5 -150 7 -29 16 -21 27 30 43
26 8 39 15 30 15 -9 1 -22 3 -30 6 -7 3 -22 -1 -33 -9z m144 -201 c21 -21 22
-25 9 -51 -12 -25 -19 -29 -51 -28 -39 1 -87 35 -87 60 0 7 12 22 26 33 31 25
67 20 103 -14z m-190 -69 c18 -22 -10 -39 -44 -26 -23 9 -25 13 -15 25 16 19
44 19 59 1z"/>
<path d="M0 1270 l0 -80 24 15 c13 9 31 12 41 9 15 -6 17 -2 11 37 -12 72 -25
99 -52 99 -23 0 -24 -2 -24 -80z"/>
<path d="M150 1322 c0 -16 -6 -50 -14 -75 l-14 -47 33 0 34 0 -1 75 c0 67 -2
75 -19 75 -14 0 -19 -7 -19 -28z"/>
<path d="M13450 1191 c0 -88 4 -162 9 -165 5 -3 48 2 95 11 l86 17 0 148 0
148 -95 0 -95 0 0 -159z"/>
<path d="M9532 1253 c42 -14 50 -14 85 0 l38 16 -85 0 -85 -1 47 -15z"/>
<path d="M11667 1254 c-4 -4 -7 -27 -7 -51 0 -40 2 -43 28 -43 15 0 33 5 39
11 7 7 15 6 25 -5 12 -12 19 -12 39 -2 13 6 24 20 24 30 0 10 8 23 18 30 9 7
17 15 17 17 0 3 -28 5 -62 6 -34 1 -73 5 -88 8 -14 3 -29 3 -33 -1z"/>
<path d="M12056 1181 c-6 -10 54 -22 68 -14 12 8 -15 23 -41 23 -12 0 -24 -4
-27 -9z"/>
<path d="M12327 1170 c-20 -4 -41 -11 -45 -15 -4 -4 4 -5 18 -2 14 4 37 7 53
7 15 0 27 5 27 10 0 6 -3 9 -7 9 -5 -1 -25 -5 -46 -9z"/>
<path d="M9535 1070 c-3 -5 -19 -10 -34 -10 -24 0 -29 -5 -33 -30 -3 -21 0
-30 9 -30 9 0 13 -11 11 -36 -2 -30 3 -41 27 -60 28 -23 29 -23 10 -43 l-18
-21 109 1 c60 1 141 4 179 8 66 6 70 7 70 31 0 22 -4 25 -32 22 -42 -3 -46 25
-6 30 l28 3 -23 21 c-15 14 -43 24 -80 28 -31 4 -74 11 -95 17 l-39 10 17 26
c14 21 15 27 4 34 -19 12 -96 11 -104 -1z m70 -54 c46 -46 41 -111 -9 -104
-29 4 -61 66 -52 101 8 33 30 34 61 3z"/>
<path d="M11114 1048 c-4 -6 7 -23 27 -39 l34 -28 3 25 c5 38 -46 71 -64 42z"/>
<path d="M0 980 l0 -49 49 -18 c59 -20 57 -33 -5 -33 l-44 0 0 -440 0 -440
345 0 c334 0 345 1 355 20 14 26 34 26 27 0 -5 -19 0 -20 172 -20 128 0 180 3
189 12 10 10 15 10 22 -2 8 -13 10 -13 10 2 0 28 22 33 41 10 14 -19 28 -22
83 -22 63 0 66 1 66 25 0 13 7 46 16 72 9 26 17 58 19 70 2 22 -1 23 -54 22
-42 -1 -50 -3 -31 -9 39 -11 9 -18 -117 -24 -162 -9 -171 -12 -190 -57 -8 -21
-18 -38 -21 -37 -21 2 -31 -4 -34 -24 -2 -12 -9 -24 -17 -26 -11 -4 -13 7 -9
55 l6 59 -59 -4 c-38 -3 -59 -1 -59 6 0 11 60 32 92 32 24 0 48 11 48 21 0 5
-153 9 -354 9 l-355 0 -3 32 c-3 30 -8 35 -56 52 -67 24 -59 30 56 46 1 0 1
62 0 137 -3 154 5 140 -79 127 -52 -9 -79 20 -79 84 0 26 7 56 15 66 8 11 15
30 15 42 0 36 11 54 31 54 14 0 19 -7 19 -29 0 -24 5 -29 31 -35 17 -3 35 -3
40 0 13 8 11 201 -2 210 -7 4 -16 -1 -21 -10 -5 -9 -15 -16 -23 -16 -7 0 -15
-5 -17 -12 -8 -22 -36 1 -48 39 -14 41 -25 53 -52 53 -15 0 -18 -9 -18 -50z"/>
<path d="M6156 1005 c-7 -18 2 -18 34 0 l25 14 -26 1 c-15 0 -29 -7 -33 -15z"/>
<path d="M8527 959 c-10 -27 -22 -49 -26 -49 -5 0 -6 -15 -2 -32 6 -30 11 -33
45 -36 66 -6 68 -2 35 85 -17 43 -31 79 -32 80 -2 1 -11 -20 -20 -48z"/>
<path d="M7156 984 c-9 -23 -7 -46 3 -40 11 7 21 56 11 56 -4 0 -11 -7 -14
-16z"/>
<path d="M13585 980 c-3 -5 -18 -10 -32 -10 -14 0 -43 -5 -64 -12 l-39 -11 0
-214 c0 -192 2 -217 20 -249 18 -35 18 -39 3 -73 -19 -40 -29 -149 -16 -161 4
-5 47 -12 96 -16 l87 -7 0 248 c0 217 -2 251 -17 267 -13 15 -14 23 -5 43 14
30 2 38 -33 25 -14 -5 -40 -10 -56 -10 -24 0 -29 4 -29 26 0 21 4 24 20 19 20
-6 28 9 10 20 -5 3 -10 10 -10 16 0 15 33 10 68 -11 39 -24 52 -19 52 21 0 22
-5 29 -19 29 -22 0 -45 25 -36 40 3 5 17 10 31 10 13 0 24 5 24 10 0 6 -11 10
-24 10 -14 0 -28 -4 -31 -10z m-51 -256 c38 -14 8 -48 -33 -37 -26 7 -27 19
-3 32 21 13 17 12 36 5z"/>
<path d="M8820 891 l0 -51 159 0 c132 0 160 3 165 15 7 19 30 19 46 0 7 -9 15
-13 18 -10 3 3 -5 16 -18 30 -27 28 -80 35 -80 10 0 -23 -46 -18 -63 6 -16 23
-56 33 -159 44 l-68 7 0 -51z"/>
<path d="M9250 856 c0 -10 9 -16 21 -16 24 0 21 23 -4 28 -10 2 -17 -3 -17
-12z"/>
<path d="M5500 820 c0 -5 9 -10 21 -10 11 0 17 5 14 10 -3 6 -13 10 -21 10 -8
0 -14 -4 -14 -10z"/>
<path d="M948 183 c6 -2 18 -2 25 0 6 3 1 5 -13 5 -14 0 -19 -2 -12 -5z"/>
<path d="M12730 180 c0 -5 5 -10 11 -10 5 0 7 5 4 10 -3 6 -8 10 -11 10 -2 0
-4 -4 -4 -10z"/>
<path d="M12880 180 c0 -5 7 -10 16 -10 8 0 12 5 9 10 -3 6 -10 10 -16 10 -5
0 -9 -4 -9 -10z"/>
<path d="M12935 181 c-9 -15 13 -23 45 -16 45 10 46 25 1 25 -22 0 -42 -4 -46
-9z"/>
<path d="M13120 175 c-7 -8 -25 -15 -41 -15 -16 0 -50 -8 -76 -18 -32 -12 -59
-16 -80 -11 -18 3 -33 3 -33 -1 0 -21 14 -40 28 -40 14 0 14 -2 2 -14 -30 -29
-53 -23 -72 17 -19 39 -46 48 -66 24 -9 -10 -7 -19 4 -36 20 -28 13 -36 -16
-21 -15 8 -59 10 -148 5 -70 -4 -172 -8 -227 -9 l-100 -1 -3 -27 -3 -28 261 0
260 0 -6 25 c-7 28 17 45 39 27 6 -6 29 -13 49 -17 21 -4 42 -13 49 -21 8 -10
39 -14 121 -14 l109 0 -20 29 c-25 35 -27 93 -4 116 12 12 25 15 50 10 25 -4
40 -1 60 14 l26 21 -75 0 c-55 0 -79 -4 -88 -15z m-90 -85 c0 -4 -7 -13 -15
-20 -12 -10 -18 -8 -35 11 -28 34 -25 39 15 26 19 -6 35 -14 35 -17z"/>
<path d="M13396 182 c-3 -6 -4 -17 0 -25 3 -8 -3 -22 -12 -32 -17 -17 -19 -16
-40 9 -26 29 -31 30 -70 16 l-27 -11 42 -35 c33 -29 41 -42 41 -70 l0 -34 155
0 155 0 0 84 0 84 -42 7 c-83 13 -196 17 -202 7z"/>
</g>
</svg>
